# xmcd CD database file
#
# Track frame offsets:
#	150
#	19425
#	41322
#	66147
#	89472
#	101383
#	123099
#	145336
#
# Disc length: 2030 seconds
#
# Revision: 2
# Processed by: cddbd v1.5.1PL2 Copyright (c) Steve Scherf et al.
# Submitted via: CDex 1.50Beta7
#
DISCID=6407ec08
DTITLE=村八分 - 山口冨士夫 著 “村八分” Extra Disc
DYEAR=2005
DGENRE=Blues
TTITLE0=くたびれて ('71.03.31 大阪)
TTITLE1=裸の街 ('71.06.27 日比谷野外音楽堂)
TTITLE2=あやつり人形 ('72-'73 京都ガロ)
TTITLE3=鼻からちょうちん ('72.08.23 円山公園野外音楽堂)
TTITLE4=ねたのよい ('72.11.11 京都会館)
TTITLE5=ドラネコ ('72 三田祭)
TTITLE6=水たまり (村八分Elec「ライブ」完全復刻)
TTITLE7=インスト (リハーサルテープ)
EXTD=YEAR: 2005
EXTT0=
EXTT1=
EXTT2=
EXTT3=
EXTT4=
EXTT5=
EXTT6=
EXTT7=
PLAYORDER=
